<svg id="Группа_1" data-name="Группа 1" xmlns="http://www.w3.org/2000/svg" width="49.312" height="29.68" viewBox="0 0 49.312 29.68">
  <metadata><?xpacket begin="﻿" id="W5M0MpCehiHzreSzNTczkc9d"?>
<x:xmpmeta xmlns:x="adobe:ns:meta/" x:xmptk="Adobe XMP Core 5.6-c142 79.160924, 2017/07/13-01:06:39        ">
   <rdf:RDF xmlns:rdf="http://www.w3.org/1999/02/22-rdf-syntax-ns#">
      <rdf:Description rdf:about=""/>
   </rdf:RDF>
</x:xmpmeta>
                                                                                                    
                                                                                                    
                                                                                                    
                                                                                                    
                                                                                                    
                                                                                                    
                                                                                                    
                                                                                                    
                                                                                                    
                                                                                                    
                                                                                                    
                                                                                                    
                                                                                                    
                                                                                                    
                                                                                                    
                                                                                                    
                                                                                                    
                                                                                                    
                                                                                                    
                                                                                                    
                           
<?xpacket end="w"?></metadata>
<defs>
    <style>
      .cls-1 {
        fill: #515359;
      }

      .cls-1, .cls-2 {
        fill-rule: evenodd;
      }

      .cls-2 {
        fill: #cb003d;
      }
    </style>
  </defs>
  <path class="cls-1" d="M519.122,1054.57l-2.393.29-1.469,6.27a5.814,5.814,0,0,1-.623-0.45,3.7,3.7,0,0,1-1.4-2.98,3.8,3.8,0,0,1,1.736-3.07,7.878,7.878,0,0,1,4.145-1.4v1.34h0Zm-4.8,10.57-3.469,14.79h-5.4l-5.324-19.04h-0.116l-5.317,19.04h-5.4l-5.915-25.07-2.374-.29v-3.49h10.676v3.49l-2.645.45,3.325,15.81,0.116,0.02,5.44-19.77H502.2l5.482,19.77,0.115-.02,2.063-9.85a6.825,6.825,0,0,0,2.277,2.87,14.661,14.661,0,0,0,2.181,1.29h0Zm-4.52-10.34-1.342-.23v-3.49h4.6c-0.166.1-.33,0.21-0.491,0.32a7.665,7.665,0,0,0-2.77,3.4h0Z" transform="translate(-481 -1050.66)"/>
  <path id="Shape_59_copy" data-name="Shape 59 copy" class="cls-2" d="M529.892,1059.68h-1.074v-4.04a8.011,8.011,0,0,0-3.414-2.91,11.85,11.85,0,0,0-5.073-1,10.041,10.041,0,0,0-6.242,1.75,5.158,5.158,0,0,0-.4,8.3q1.908,1.635,6.881,2.89a21.42,21.42,0,0,1,7.283,3.11,6.084,6.084,0,0,1,2.462,5.2,6.24,6.24,0,0,1-2.808,5.39,11.986,11.986,0,0,1-7.031,1.98,14.983,14.983,0,0,1-5.591-1.08,11.074,11.074,0,0,1-2.113-1.14l0.266-1.14a8.857,8.857,0,0,0,2.432,1.38,14.231,14.231,0,0,0,5.006.9,10.694,10.694,0,0,0,6.283-1.73,5.343,5.343,0,0,0,2.461-4.52,5.289,5.289,0,0,0-2.006-4.34q-2-1.635-6.943-2.98a22.376,22.376,0,0,1-7.262-3.02,5.766,5.766,0,0,1-2.3-4.94,6.022,6.022,0,0,1,2.707-5.16,11.761,11.761,0,0,1,6.915-1.92,13.659,13.659,0,0,1,5.7,1.12,8.8,8.8,0,0,1,3.856,3.36v4.54h0Z" transform="translate(-481 -1050.66)"/>
</svg>
